<?xml version="1.0" encoding="utf-8"?>
<!-- Generator: Adobe Illustrator 27.2.0, SVG Export Plug-In . SVG Version: 6.00 Build 0)  -->
<svg version="1.1" id="Layer_1" xmlns="http://www.w3.org/2000/svg" xmlns:xlink="http://www.w3.org/1999/xlink" x="0px" y="0px"
	 viewBox="0 0 24 24" style="enable-background:new 0 0 24 24;" xml:space="preserve">
<style type="text/css">
	.st0{fill-rule:evenodd;clip-rule:evenodd;fill:#FFFFFF;}
	.st1{fill:#FFFFFF;}
</style>
<g>
	<g>
		<path class="st0" d="M8.6,15V7H6v8H8.6L8.6,15z M7.4,5.8c0.9,0,1.4-0.6,1.4-1.4C8.8,3.6,8.2,3,7.4,3S6,3.6,6,4.4
			C6,5.2,6.5,5.8,7.4,5.8L7.4,5.8L7.4,5.8z"/>
		<path class="st0" d="M15,6.8c-1.4,0-2,0.8-2.3,1.3V7h-2.6v8h2.6v-4.6c0-0.2,0-0.5,0.1-0.6c0.2-0.5,0.6-1,1.3-1
			c0.9,0,1.3,0.7,1.3,1.8V15H18v-4.7C18,7.9,16.7,6.8,15,6.8z"/>
	</g>
	<path class="st1" d="M19.6,0h-15C3.7,0,3,0.6,3,1.4v15.1C3,17.3,3.7,18,4.5,18h15c0.8,0,1.4-0.7,1.4-1.5V1.4C21,0.6,20.4,0,19.6,0z
		 M19.4,16.5c-0.1,0-14.7,0-14.8,0s-0.1-0.1-0.1-0.1s0-14.7,0-14.8c0-0.1,0-0.1,0.1-0.1c0,0,14.8,0,14.8,0c0,0,0.1,0,0.1,0.1
		C19.5,2.7,19.5,16.4,19.4,16.5C19.5,16.5,19.5,16.5,19.4,16.5z"/>
</g>
</svg>
